<?xml version="1.0" standalone="no"?>
<!DOCTYPE svg PUBLIC "-//W3C//DTD SVG 20010904//EN"
 "http://www.w3.org/TR/2001/REC-SVG-20010904/DTD/svg10.dtd">
<svg version="1.0" xmlns="http://www.w3.org/2000/svg"
 width="685.000000pt" height="685.000000pt" viewBox="0 0 685.000000 685.000000"
 preserveAspectRatio="xMidYMid meet">
<metadata>
Created by potrace 1.11, written by Peter Selinger 2001-2013
</metadata>
<g transform="translate(0.000000,685.000000) scale(0.100000,-0.100000)"
fill="#000000" stroke="none">
<path d="M3083 6794 c-645 -70 -1263 -327 -1778 -740 -141 -113 -386 -358
-499 -499 -418 -521 -671 -1135 -741 -1792 -19 -177 -19 -529 0 -706 58 -552
243 -1067 546 -1522 145 -217 255 -352 434 -530 558 -559 1266 -897 2051 -980
284 -30 681 -15 963 36 869 157 1655 658 2167 1379 179 253 337 557 433 835
17 50 36 99 41 110 14 31 87 339 105 442 60 356 60 811 0 1166 -82 482 -289
978 -579 1387 -215 303 -503 591 -806 806 -479 339 -1029 547 -1616 609 -171
18 -551 18 -721 -1z"/>
</g>
</svg>
